<svg width="35" height="35" viewBox="0 0 35 35" fill="none" xmlns="http://www.w3.org/2000/svg">
<path d="M24.2188 14.8125C24.2188 15.1689 24.0772 15.5106 23.8252 15.7627C23.5732 16.0147 23.2314 16.1562 22.875 16.1562H12.125C11.7686 16.1562 11.4268 16.0147 11.1748 15.7627C10.9228 15.5106 10.7812 15.1689 10.7812 14.8125C10.7812 14.4561 10.9228 14.1143 11.1748 13.8623C11.4268 13.6103 11.7686 13.4687 12.125 13.4687H22.875C23.2314 13.4687 23.5732 13.6103 23.8252 13.8623C24.0772 14.1143 24.2188 14.4561 24.2188 14.8125ZM22.875 18.8437H12.125C11.7686 18.8437 11.4268 18.9853 11.1748 19.2373C10.9228 19.4893 10.7812 19.8311 10.7812 20.1875C10.7812 20.5439 10.9228 20.8857 11.1748 21.1377C11.4268 21.3897 11.7686 21.5312 12.125 21.5312H22.875C23.2314 21.5312 23.5732 21.3897 23.8252 21.1377C24.0772 20.8857 24.2188 20.5439 24.2188 20.1875C24.2188 19.8311 24.0772 19.4893 23.8252 19.2373C23.5732 18.9853 23.2314 18.8437 22.875 18.8437ZM34.9688 17.5C34.9694 20.5159 34.1892 23.4806 32.7041 26.1056C31.2191 28.7306 29.0797 30.9263 26.4942 32.4791C23.9088 34.032 20.9653 34.889 17.9504 34.9667C14.9355 35.0445 11.9518 34.3404 9.28969 32.9229L3.57035 34.8293C3.09682 34.9872 2.58867 35.0101 2.10285 34.8955C1.61703 34.7808 1.17274 34.5332 0.819781 34.1802C0.466818 33.8272 0.219131 33.3829 0.10448 32.8971C-0.0101703 32.4113 0.0127471 31.9031 0.170664 31.4296L2.07711 25.7103C0.83103 23.3675 0.13505 20.7716 0.0419955 18.1197C-0.0510587 15.4678 0.461259 12.8296 1.54006 10.4052C2.61886 7.98085 4.2358 5.83412 6.26813 4.12797C8.30046 2.42182 10.6948 1.20109 13.2693 0.558438C15.8439 -0.0842135 18.531 -0.131895 21.1267 0.419013C23.7224 0.96992 26.1586 2.10494 28.2501 3.73791C30.3417 5.37088 32.0338 7.45889 33.1979 9.84345C34.3621 12.228 34.9677 14.8464 34.9688 17.5ZM32.2812 17.5C32.2806 15.2326 31.7584 12.9958 30.7549 10.9625C29.7514 8.9293 28.2937 7.15417 26.4944 5.77447C24.6951 4.39477 22.6026 3.4475 20.3786 3.00593C18.1547 2.56437 15.8589 2.64035 13.669 3.228C11.4791 3.81566 9.45378 4.89922 7.74967 6.39488C6.04556 7.89053 4.70837 9.75817 3.84156 11.8533C2.97474 13.9484 2.60154 16.2149 2.75082 18.4774C2.90011 20.7398 3.56787 22.9376 4.70246 24.9007C4.79769 25.0655 4.85681 25.2486 4.87593 25.438C4.89504 25.6274 4.8737 25.8187 4.81332 25.9992L2.71875 32.2812L9.00078 30.1867C9.13761 30.14 9.28118 30.1162 9.42574 30.1161C9.66174 30.1165 9.89347 30.1791 10.0976 30.2975C12.3447 31.5976 14.8946 32.283 17.4907 32.2846C20.0868 32.2863 22.6375 31.6041 24.8862 30.3069C27.1349 29.0096 29.0023 27.1429 30.3005 24.8947C31.5987 22.6465 32.2818 20.0961 32.2812 17.5Z" fill="#40B6BE"/>
</svg>
