<svg width="272" height="50" viewBox="0 0 272 50" fill="none" xmlns="http://www.w3.org/2000/svg">
<path d="M17.1056 41.766C12.2389 41.766 8.52402 40.4017 5.96104 37.6735C3.42688 34.9453 2.15979 31.0703 2.15979 26.049C2.15979 23.5528 2.54855 21.3324 3.32608 19.3878C4.10361 17.4141 5.1691 15.7596 6.52259 14.4245C7.87608 13.0603 9.48871 12.0299 11.3605 11.3334C13.2324 10.6368 15.2626 10.2885 17.4512 10.2885C18.7183 10.2885 19.8702 10.3901 20.9069 10.5932C21.9436 10.7674 22.8507 10.9851 23.6282 11.2463C24.4057 11.4785 25.0537 11.7252 25.572 11.9864C26.0904 12.2476 26.4647 12.4508 26.6951 12.5959L24.7513 18.0816C23.8298 17.5882 22.7499 17.1674 21.5116 16.8191C20.3021 16.4708 18.9198 16.2966 17.3648 16.2966C16.3281 16.2966 15.3058 16.4708 14.2979 16.8191C13.3188 17.1674 12.4404 17.7333 11.6629 18.517C10.9142 19.2717 10.3094 20.2585 9.84868 21.4776C9.38794 22.6966 9.15755 24.1769 9.15755 25.9184C9.15755 27.3116 9.30155 28.6177 9.58951 29.8368C9.90629 31.0268 10.3958 32.0572 11.0582 32.9279C11.7493 33.7987 12.642 34.4953 13.7363 35.0177C14.8306 35.5112 16.1553 35.7578 17.7104 35.7578C18.6895 35.7578 19.5678 35.6997 20.3453 35.5837C21.1228 35.4677 21.814 35.3371 22.4187 35.1918C23.0235 35.0177 23.5562 34.8289 24.017 34.6259C24.4777 34.4228 24.8953 34.234 25.2697 34.0599L27.1271 39.5021C26.1768 40.0827 24.8377 40.6051 23.1099 41.0694C21.382 41.5337 19.3806 41.766 17.1056 41.766ZM51.7799 29.6626C51.7799 31.4622 51.5207 33.1166 51.0024 34.6259C50.484 36.1061 49.7352 37.3833 48.7562 38.4572C47.7772 39.5021 46.5964 40.3146 45.2141 40.8953C43.8605 41.4759 42.3345 41.766 40.6353 41.766C38.9652 41.766 37.4388 41.4759 36.0565 40.8953C34.7029 40.3146 33.5367 39.5021 32.5576 38.4572C31.5785 37.3833 30.8154 36.1061 30.2683 34.6259C29.7211 33.1166 29.4475 31.4622 29.4475 29.6626C29.4475 27.863 29.7211 26.2231 30.2683 24.7429C30.8442 23.2626 31.6217 22 32.6008 20.9551C33.6088 19.9102 34.7893 19.0975 36.1429 18.517C37.5252 17.9365 39.0225 17.6463 40.6353 17.6463C42.2768 17.6463 43.7741 17.9365 45.1277 18.517C46.51 19.0975 47.6908 19.9102 48.6698 20.9551C49.6488 22 50.4121 23.2626 50.9592 24.7429C51.5062 26.2231 51.7799 27.863 51.7799 29.6626ZM45.2141 29.6626C45.2141 27.6599 44.8108 26.0925 44.0046 24.9606C43.2271 23.7996 42.104 23.2191 40.6353 23.2191C39.1666 23.2191 38.029 23.7996 37.2228 24.9606C36.4166 26.0925 36.0133 27.6599 36.0133 29.6626C36.0133 31.6653 36.4166 33.2617 37.2228 34.4517C38.029 35.6126 39.1666 36.1932 40.6353 36.1932C42.104 36.1932 43.2271 35.6126 44.0046 34.4517C44.8108 33.2617 45.2141 31.6653 45.2141 29.6626ZM56.7657 19.0395C57.8601 18.7202 59.271 18.4299 60.9989 18.1687C62.7267 17.8785 64.5409 17.7334 66.4416 17.7334C68.3709 17.7334 69.9691 17.9946 71.2363 18.517C72.5322 19.0105 73.5544 19.7215 74.3032 20.6504C75.0521 21.5792 75.5846 22.6821 75.9015 23.9592C76.2184 25.2363 76.3766 26.6585 76.3766 28.2259V41.1565H69.9404V29.0095C69.9404 26.9197 69.6667 25.4395 69.1197 24.5687C68.5727 23.698 67.5501 23.2626 66.0528 23.2626C65.5921 23.2626 65.1025 23.2916 64.5841 23.3497C64.0658 23.3787 63.6051 23.4222 63.2019 23.4803V41.1565H56.7657V19.0395ZM81.9864 12.5524L88.4226 11.5075V18.2558H96.1547V23.6544H88.4226V31.7089C88.4226 33.073 88.6531 34.1616 89.1137 34.9742C89.6034 35.7867 90.5679 36.1932 92.0079 36.1932C92.699 36.1932 93.4047 36.135 94.1245 36.0191C94.8733 35.8738 95.5499 35.6854 96.1547 35.4531L97.0618 40.5034C96.2843 40.8228 95.4204 41.0983 94.47 41.3306C93.5197 41.5629 92.3534 41.6789 90.9712 41.6789C89.2146 41.6789 87.7601 41.4466 86.6084 40.9823C85.4566 40.4888 84.535 39.8214 83.8438 38.9796C83.1527 38.1089 82.663 37.064 82.3752 35.8449C82.116 34.6259 81.9864 33.2762 81.9864 31.7959V12.5524ZM115.089 24.0027C114.513 23.8576 113.836 23.7125 113.059 23.5674C112.281 23.3932 111.446 23.3061 110.553 23.3061C110.15 23.3061 109.661 23.3497 109.085 23.4367C108.538 23.4948 108.12 23.5674 107.832 23.6544V41.1565H101.396V19.4748C102.548 19.0685 103.901 18.6912 105.456 18.3429C107.04 17.9656 108.797 17.7769 110.726 17.7769C111.072 17.7769 111.489 17.8059 111.979 17.864C112.469 17.893 112.958 17.951 113.448 18.0381C113.937 18.0962 114.427 18.1832 114.916 18.2993C115.406 18.3864 115.823 18.5025 116.169 18.6476L115.089 24.0027ZM127.88 36.6286C128.513 36.6286 129.118 36.614 129.694 36.585C130.27 36.5561 130.731 36.5126 131.076 36.4544V31.5347C130.817 31.4766 130.428 31.4186 129.91 31.3606C129.392 31.3025 128.917 31.2735 128.485 31.2735C127.88 31.2735 127.304 31.317 126.757 31.4041C126.238 31.4622 125.778 31.5928 125.374 31.7959C124.971 31.9991 124.655 32.2748 124.424 32.6231C124.194 32.9714 124.079 33.4068 124.079 33.9293C124.079 34.9453 124.41 35.6561 125.072 36.0626C125.763 36.4398 126.699 36.6286 127.88 36.6286ZM127.361 17.6463C129.262 17.6463 130.846 17.864 132.113 18.2993C133.38 18.7347 134.388 19.3588 135.137 20.1714C135.914 20.9841 136.461 21.971 136.778 23.132C137.095 24.293 137.253 25.5846 137.253 27.0068V40.5034C136.332 40.7065 135.05 40.9388 133.409 41.2C131.767 41.4901 129.78 41.6354 127.448 41.6354C125.979 41.6354 124.64 41.5048 123.431 41.2435C122.25 40.9823 121.228 40.5616 120.364 39.981C119.5 39.3714 118.837 38.5878 118.377 37.6299C117.916 36.6721 117.686 35.4966 117.686 34.1034C117.686 32.7683 117.945 31.6363 118.463 30.7075C119.01 29.7787 119.73 29.0386 120.623 28.4871C121.515 27.9356 122.538 27.5438 123.69 27.3116C124.842 27.0504 126.037 26.9197 127.275 26.9197C128.11 26.9197 128.845 26.9633 129.478 27.0504C130.141 27.1084 130.673 27.1955 131.076 27.3116V26.7021C131.076 25.5991 130.745 24.7139 130.083 24.0463C129.42 23.3787 128.269 23.0449 126.627 23.0449C125.533 23.0449 124.453 23.132 123.387 23.3061C122.322 23.4513 121.4 23.669 120.623 23.9592L119.802 18.7347C120.176 18.6186 120.637 18.5025 121.184 18.3864C121.76 18.2413 122.379 18.1252 123.042 18.0381C123.704 17.922 124.395 17.8349 125.115 17.7769C125.864 17.6898 126.613 17.6463 127.361 17.6463ZM142.857 12.5524L149.294 11.5075V18.2558H157.026V23.6544H149.294V31.7089C149.294 33.073 149.524 34.1616 149.985 34.9742C150.474 35.7867 151.439 36.1932 152.879 36.1932C153.57 36.1932 154.276 36.135 154.995 36.0191C155.744 35.8738 156.421 35.6854 157.026 35.4531L157.933 40.5034C157.155 40.8228 156.291 41.0983 155.341 41.3306C154.391 41.5629 153.224 41.6789 151.842 41.6789C150.086 41.6789 148.631 41.4466 147.479 40.9823C146.328 40.4888 145.406 39.8214 144.715 38.9796C144.024 38.1089 143.534 37.064 143.246 35.8449C142.987 34.6259 142.857 33.2762 142.857 31.7959V12.5524ZM170.106 36.6286C170.739 36.6286 171.344 36.614 171.92 36.585C172.496 36.5561 172.957 36.5126 173.302 36.4544V31.5347C173.043 31.4766 172.654 31.4186 172.136 31.3606C171.617 31.3025 171.142 31.2735 170.71 31.2735C170.106 31.2735 169.53 31.317 168.983 31.4041C168.464 31.4622 168.004 31.5928 167.6 31.7959C167.197 31.9991 166.88 32.2748 166.65 32.6231C166.419 32.9714 166.304 33.4068 166.304 33.9293C166.304 34.9453 166.635 35.6561 167.298 36.0626C167.989 36.4398 168.925 36.6286 170.106 36.6286ZM169.587 17.6463C171.488 17.6463 173.072 17.864 174.339 18.2993C175.606 18.7347 176.614 19.3588 177.363 20.1714C178.14 20.9841 178.687 21.971 179.004 23.132C179.321 24.293 179.479 25.5846 179.479 27.0068V40.5034C178.558 40.7065 177.276 40.9388 175.635 41.2C173.993 41.4901 172.006 41.6354 169.674 41.6354C168.205 41.6354 166.866 41.5048 165.656 41.2435C164.476 40.9823 163.453 40.5616 162.59 39.981C161.726 39.3714 161.063 38.5878 160.602 37.6299C160.142 36.6721 159.911 35.4966 159.911 34.1034C159.911 32.7683 160.171 31.6363 160.689 30.7075C161.236 29.7787 161.956 29.0386 162.849 28.4871C163.741 27.9356 164.764 27.5438 165.916 27.3116C167.067 27.0504 168.263 26.9197 169.501 26.9197C170.336 26.9197 171.07 26.9633 171.704 27.0504C172.366 27.1084 172.899 27.1955 173.302 27.3116V26.7021C173.302 25.5991 172.971 24.7139 172.309 24.0463C171.646 23.3787 170.494 23.0449 168.853 23.0449C167.759 23.0449 166.679 23.132 165.613 23.3061C164.548 23.4513 163.626 23.669 162.849 23.9592L162.028 18.7347C162.402 18.6186 162.863 18.5025 163.41 18.3864C163.986 18.2413 164.605 18.1252 165.268 18.0381C165.93 17.922 166.621 17.8349 167.341 17.7769C168.09 17.6898 168.838 17.6463 169.587 17.6463Z" fill="#414141"/>
<path d="M194.716 10.6367C199.18 10.6367 202.606 11.4349 204.997 13.0313C207.387 14.5986 208.582 17.1819 208.582 20.7809C208.582 24.4091 207.372 27.0358 204.953 28.6612C202.534 30.2576 199.079 31.0558 194.586 31.0558H192.47V41.1564H185.731V11.4204C187.2 11.1302 188.755 10.927 190.396 10.8109C192.038 10.6948 193.478 10.6367 194.716 10.6367ZM195.148 16.4272C194.658 16.4272 194.169 16.4417 193.679 16.4707C193.219 16.4997 192.815 16.5288 192.47 16.5578V25.2653H194.586C196.919 25.2653 198.675 24.946 199.856 24.3075C201.037 23.6689 201.627 22.4789 201.627 20.7374C201.627 19.8957 201.469 19.1991 201.152 18.6476C200.864 18.0961 200.432 17.6608 199.856 17.3415C199.309 16.9932 198.632 16.761 197.826 16.6449C197.02 16.4997 196.127 16.4272 195.148 16.4272ZM222.299 10.6367C226.791 10.6367 230.232 11.4494 232.623 13.0748C235.013 14.6712 236.208 17.1673 236.208 20.5633C236.208 22.6821 235.718 24.4091 234.739 25.7442C233.789 27.0503 232.407 28.0807 230.593 28.8354C231.197 29.59 231.831 30.4608 232.493 31.4476C233.156 32.4054 233.804 33.4213 234.437 34.4952C235.099 35.5401 235.733 36.6432 236.338 37.8041C236.942 38.936 237.504 40.0534 238.022 41.1564H230.463C229.916 40.1697 229.354 39.1684 228.778 38.1524C228.231 37.1364 227.655 36.1496 227.05 35.1918C226.474 34.234 225.899 33.3342 225.323 32.4925C224.747 31.6218 224.171 30.8381 223.595 30.1415H220.269V41.1564H213.53V11.4204C214.999 11.1302 216.511 10.927 218.066 10.8109C219.649 10.6948 221.061 10.6367 222.299 10.6367ZM222.688 16.4272C222.198 16.4272 221.752 16.4417 221.349 16.4707C220.974 16.4997 220.614 16.5288 220.269 16.5578V24.7428H222.169C224.703 24.7428 226.518 24.4236 227.612 23.785C228.706 23.1465 229.253 22.058 229.253 20.5197C229.253 19.0394 228.692 17.9945 227.569 17.385C226.474 16.7465 224.847 16.4272 222.688 16.4272Z" fill="#40B6BE"/>
<path d="M255.226 40.9626C263.668 40.9626 270.512 34.0648 270.512 25.556C270.512 17.0472 263.668 10.1495 255.226 10.1495C246.784 10.1495 239.94 17.0472 239.94 25.556C239.94 34.0648 246.784 40.9626 255.226 40.9626Z" fill="#40B6BE"/>
<mask id="mask0_60_202" style="mask-type:luminance" maskUnits="userSpaceOnUse" x="241" y="8" width="31" height="32">
<path d="M267.576 8.84348L241.051 12.931L245.147 39.9357L271.673 35.8482L267.576 8.84348Z" fill="white"/>
</mask>
<g mask="url(#mask0_60_202)">
<path d="M248.642 36.9149L245.809 34.7993L252.637 25.3587L255.469 27.4745L248.642 36.9149ZM258.849 22.799L256.606 25.9017L253.772 23.7885L256.016 20.6857C256.091 20.5825 256.145 20.4654 256.175 20.3409C256.205 20.2165 256.21 20.0872 256.191 19.9605C256.172 19.8338 256.128 19.7121 256.063 19.6024C255.997 19.4927 255.911 19.3971 255.809 19.3211L249.325 14.4818C250.878 13.7673 252.591 13.4861 254.289 13.667C255.986 13.8479 257.607 14.4845 258.983 15.5112L265.046 20.0677L262.157 24.0582L260.192 22.592C260.09 22.5159 259.975 22.4609 259.852 22.4301C259.73 22.3994 259.602 22.3934 259.477 22.4127C259.353 22.4319 259.233 22.4759 259.125 22.5422C259.017 22.6085 258.923 22.6958 258.849 22.799ZM265.353 26.4424L263.709 25.2154L266.586 21.228L268.229 22.455L265.353 26.4424Z" fill="white"/>
</g>
</svg>
