<svg width="635" height="115" viewBox="0 0 635 115" fill="none" xmlns="http://www.w3.org/2000/svg">
<path d="M39.9341 96.0618C28.5724 96.0618 19.8998 92.9239 13.9164 86.649C8.00028 80.374 5.04218 71.4617 5.04218 59.9126C5.04218 54.1715 5.94977 49.0645 7.76495 44.5918C9.58014 40.0523 12.0676 36.2471 15.2274 33.1763C18.3872 30.0387 22.152 27.6688 26.5219 26.0667C30.8918 24.4645 35.6314 23.6634 40.7408 23.6634C43.6989 23.6634 46.3881 23.8971 48.8083 24.3643C51.2286 24.7649 53.3463 25.2656 55.1615 25.8664C56.9767 26.4005 58.4893 26.9679 59.6994 27.5687C60.9096 28.1695 61.7835 28.6368 62.3214 28.9706L57.7834 41.5877C55.6321 40.4528 53.111 39.4849 50.2201 38.6838C47.3965 37.8827 44.1695 37.4822 40.5391 37.4822C38.1189 37.4822 35.7323 37.8827 33.3792 38.6838C31.0935 39.4849 29.043 40.7867 27.2278 42.5891C25.4798 44.3248 24.068 46.5946 22.9923 49.3984C21.9167 52.2022 21.3788 55.6068 21.3788 59.6122C21.3788 62.8166 21.715 65.8207 22.3873 68.6245C23.1268 71.3616 24.2697 73.7314 25.816 75.7341C27.4295 77.7369 29.5135 79.339 32.0683 80.5407C34.623 81.6758 37.7155 82.243 41.3459 82.243C43.6317 82.243 45.6822 82.1092 47.4974 81.8424C49.3125 81.5757 50.926 81.2753 52.3379 80.9412C53.7497 80.5407 54.9934 80.1065 56.0691 79.6394C57.1447 79.1724 58.1196 78.7382 58.9935 78.3377L63.3298 90.8547C61.1113 92.1901 57.9851 93.3917 53.9514 94.4596C49.9176 95.5274 45.2452 96.0618 39.9341 96.0618ZM120.883 68.2239C120.883 72.3629 120.278 76.1681 119.068 79.6394C117.858 83.0441 116.11 85.9817 113.824 88.4514C111.539 90.8547 108.782 92.7236 105.555 94.059C102.395 95.3944 98.8323 96.0618 94.8655 96.0618C90.9665 96.0618 87.4031 95.3944 84.1761 94.059C81.0161 92.7236 78.2935 90.8547 76.0078 88.4514C73.722 85.9817 71.9404 83.0441 70.663 79.6394C69.3857 76.1681 68.747 72.3629 68.747 68.2239C68.747 64.085 69.3857 60.3132 70.663 56.9086C72.0076 53.5039 73.8228 50.6 76.1086 48.1967C78.4616 45.7935 81.2177 43.9243 84.3778 42.5891C87.6048 41.2539 91.1004 40.5864 94.8655 40.5864C98.6976 40.5864 102.193 41.2539 105.353 42.5891C108.58 43.9243 111.337 45.7935 113.622 48.1967C115.908 50.6 117.69 53.5039 118.967 56.9086C120.244 60.3132 120.883 64.085 120.883 68.2239ZM105.555 68.2239C105.555 63.6177 104.613 60.0128 102.731 57.4092C100.916 54.739 98.2942 53.4038 94.8655 53.4038C91.4368 53.4038 88.781 54.739 86.8989 57.4092C85.0167 60.0128 84.0752 63.6177 84.0752 68.2239C84.0752 72.8302 85.0167 76.5018 86.8989 79.2389C88.781 81.9089 91.4368 83.2443 94.8655 83.2443C98.2942 83.2443 100.916 81.9089 102.731 79.2389C104.613 76.5018 105.555 72.8302 105.555 68.2239ZM132.523 43.7907C135.078 43.0564 138.372 42.3888 142.405 41.788C146.439 41.1205 150.675 40.7867 155.112 40.7867C159.616 40.7867 163.347 41.3875 166.305 42.5891C169.331 43.724 171.717 45.3595 173.465 47.4958C175.214 49.632 176.457 52.1688 177.197 55.1061C177.936 58.0435 178.306 61.3145 178.306 64.9194V94.6599H163.28V66.7219C163.28 61.9154 162.641 58.5107 161.364 56.508C160.087 54.5053 157.7 53.5039 154.204 53.5039C153.129 53.5039 151.986 53.5707 150.775 53.7042C149.565 53.7709 148.49 53.8711 147.548 54.0046V94.6599H132.523V43.7907ZM191.402 28.8705L206.428 26.4672V41.9883H224.479V54.4052H206.428V72.9303C206.428 76.068 206.966 78.5716 208.041 80.4405C209.184 82.3095 211.436 83.2443 214.798 83.2443C216.411 83.2443 218.059 83.1106 219.739 82.8438C221.487 82.5098 223.067 82.0764 224.479 81.542L226.597 93.1578C224.781 93.8924 222.764 94.5261 220.546 95.0604C218.327 95.5947 215.605 95.8615 212.378 95.8615C208.277 95.8615 204.881 95.3272 202.192 94.2593C199.503 93.1242 197.352 91.5893 195.738 89.653C194.125 87.6503 192.982 85.2471 192.31 82.4433C191.705 79.6394 191.402 76.5352 191.402 73.1306V28.8705ZM268.682 55.2062C267.337 54.8724 265.758 54.5387 263.943 54.2049C262.127 53.8043 260.177 53.6041 258.094 53.6041C257.152 53.6041 256.01 53.7042 254.665 53.9045C253.388 54.038 252.412 54.2049 251.74 54.4052V94.6599H236.715V44.7921C239.404 43.8575 242.564 42.9897 246.194 42.1886C249.891 41.3207 253.993 40.8868 258.497 40.8868C259.304 40.8868 260.278 40.9535 261.421 41.0871C262.565 41.1538 263.707 41.2873 264.85 41.4876C265.993 41.6212 267.136 41.8214 268.279 42.0884C269.422 42.2887 270.397 42.5557 271.203 42.8895L268.682 55.2062ZM298.543 84.2457C300.022 84.2457 301.434 84.2121 302.778 84.1456C304.123 84.0791 305.199 83.9789 306.005 83.8452V72.5298C305.4 72.3962 304.493 72.2628 303.283 72.1292C302.072 71.9957 300.963 71.929 299.955 71.929C298.543 71.929 297.198 72.0291 295.921 72.2294C294.711 72.3629 293.635 72.6633 292.694 73.1306C291.753 73.5979 291.014 74.2321 290.475 75.0332C289.937 75.8343 289.669 76.8356 289.669 78.0373C289.669 80.374 290.442 82.0091 291.988 82.9439C293.602 83.8115 295.786 84.2457 298.543 84.2457ZM297.333 40.5864C301.77 40.5864 305.467 41.0871 308.426 42.0884C311.384 43.0898 313.736 44.5251 315.485 46.3943C317.3 48.2635 318.577 50.5333 319.317 53.2035C320.057 55.8738 320.426 58.8446 320.426 62.1156V93.1578C318.274 93.6249 315.283 94.1592 311.451 94.76C307.619 95.4273 302.98 95.7613 297.534 95.7613C294.106 95.7613 290.98 95.4609 288.156 94.8601C285.399 94.2593 283.013 93.2916 280.996 91.9562C278.979 90.5543 277.433 88.7518 276.357 86.5488C275.282 84.3458 274.744 81.6422 274.744 78.4378C274.744 75.367 275.349 72.7635 276.559 70.6272C277.836 68.4909 279.517 66.7886 281.601 65.5203C283.685 64.2519 286.072 63.3507 288.761 62.8166C291.45 62.2158 294.241 61.9154 297.131 61.9154C299.081 61.9154 300.795 62.0155 302.274 62.2158C303.821 62.3493 305.064 62.5496 306.005 62.8166V61.4147C306.005 58.8779 305.233 56.8418 303.686 55.3064C302.139 53.7709 299.451 53.0033 295.618 53.0033C293.064 53.0033 290.542 53.2035 288.055 53.6041C285.568 53.9379 283.416 54.4386 281.601 55.1061L279.685 43.0898C280.559 42.8228 281.635 42.5557 282.912 42.2887C284.257 41.9549 285.702 41.6879 287.248 41.4876C288.795 41.2206 290.408 41.0203 292.089 40.8868C293.837 40.6865 295.585 40.5864 297.333 40.5864ZM333.509 28.8705L348.535 26.4672V41.9883H366.586V54.4052H348.535V72.9303C348.535 76.068 349.073 78.5716 350.148 80.4405C351.291 82.3095 353.543 83.2443 356.905 83.2443C358.518 83.2443 360.165 83.1106 361.846 82.8438C363.594 82.5098 365.174 82.0764 366.586 81.542L368.703 93.1578C366.888 93.8924 364.871 94.5261 362.653 95.0604C360.434 95.5947 357.711 95.8615 354.484 95.8615C350.384 95.8615 346.988 95.3272 344.299 94.2593C341.61 93.1242 339.459 91.5893 337.845 89.653C336.232 87.6503 335.089 85.2471 334.417 82.4433C333.811 79.6394 333.509 76.5352 333.509 73.1306V28.8705ZM397.122 84.2457C398.6 84.2457 400.012 84.2121 401.357 84.1456C402.702 84.0791 403.777 83.9789 404.584 83.8452V72.5298C403.979 72.3962 403.071 72.2628 401.861 72.1292C400.651 71.9957 399.542 71.929 398.533 71.929C397.122 71.929 395.777 72.0291 394.5 72.2294C393.289 72.3629 392.214 72.6633 391.273 73.1306C390.331 73.5979 389.592 74.2321 389.054 75.0332C388.516 75.8343 388.247 76.8356 388.247 78.0373C388.247 80.374 389.02 82.0091 390.567 82.9439C392.18 83.8115 394.365 84.2457 397.122 84.2457ZM395.911 40.5864C400.349 40.5864 404.046 41.0871 407.004 42.0884C409.963 43.0898 412.315 44.5251 414.063 46.3943C415.878 48.2635 417.156 50.5333 417.895 53.2035C418.635 55.8738 419.005 58.8446 419.005 62.1156V93.1578C416.853 93.6249 413.862 94.1592 410.03 94.76C406.197 95.4273 401.559 95.7613 396.113 95.7613C392.684 95.7613 389.558 95.4609 386.735 94.8601C383.978 94.2593 381.592 93.2916 379.575 91.9562C377.558 90.5543 376.011 88.7518 374.936 86.5488C373.861 84.3458 373.322 81.6422 373.322 78.4378C373.322 75.367 373.928 72.7635 375.138 70.6272C376.415 68.4909 378.096 66.7886 380.18 65.5203C382.264 64.2519 384.651 63.3507 387.34 62.8166C390.029 62.2158 392.819 61.9154 395.71 61.9154C397.66 61.9154 399.374 62.0155 400.853 62.2158C402.399 62.3493 403.643 62.5496 404.584 62.8166V61.4147C404.584 58.8779 403.811 56.8418 402.265 55.3064C400.718 53.7709 398.029 53.0033 394.197 53.0033C391.642 53.0033 389.121 53.2035 386.634 53.6041C384.147 53.9379 381.995 54.4386 380.18 55.1061L378.264 43.0898C379.138 42.8228 380.214 42.5557 381.491 42.2887C382.836 41.9549 384.281 41.6879 385.827 41.4876C387.374 41.2206 388.987 41.0203 390.668 40.8868C392.416 40.6865 394.163 40.5864 395.911 40.5864Z" fill="white"/>
<path d="M454.576 24.4645C464.996 24.4645 472.996 26.3003 478.577 29.972C484.157 33.5769 486.947 39.5183 486.947 47.7962C486.947 56.1409 484.123 62.1824 478.476 65.9208C472.828 69.5924 464.761 71.4283 454.273 71.4283H449.332V94.6598H433.6V26.2669C437.029 25.5994 440.659 25.132 444.491 24.865C448.323 24.598 451.685 24.4645 454.576 24.4645ZM455.584 37.7826C454.441 37.7826 453.299 37.816 452.155 37.8827C451.08 37.9494 450.139 38.0162 449.332 38.083V58.1102H454.273C459.719 58.1102 463.819 57.3758 466.576 55.9072C469.333 54.4386 470.711 51.7015 470.711 47.696C470.711 45.76 470.341 44.1579 469.601 42.8895C468.929 41.6211 467.921 40.6198 466.576 39.8854C465.299 39.0843 463.719 38.5503 461.836 38.2833C459.954 37.9494 457.87 37.7826 455.584 37.7826ZM518.97 24.4645C529.458 24.4645 537.491 26.3337 543.072 30.0721C548.652 33.7437 551.442 39.4849 551.442 47.2955C551.442 52.1688 550.298 56.1409 548.013 59.2117C545.794 62.2158 542.567 64.5856 538.332 66.3213C539.744 68.0571 541.222 70.0598 542.769 72.3295C544.316 74.5325 545.828 76.869 547.307 79.339C548.854 81.7423 550.332 84.2793 551.744 86.9494C553.156 89.5529 554.467 92.1228 555.677 94.6598H538.029C536.752 92.3904 535.441 90.0872 534.096 87.7505C532.819 85.4137 531.475 83.1442 530.063 80.9412C528.718 78.7382 527.374 76.6688 526.029 74.7328C524.684 72.73 523.34 70.9276 521.995 69.3254H514.23V94.6598H498.499V26.2669C501.927 25.5994 505.457 25.132 509.087 24.865C512.785 24.598 516.079 24.4645 518.97 24.4645ZM519.877 37.7826C518.734 37.7826 517.693 37.816 516.751 37.8827C515.878 37.9494 515.037 38.0162 514.23 38.083V56.9086H518.667C524.583 56.9086 528.819 56.1742 531.374 54.7056C533.929 53.2369 535.206 50.7335 535.206 47.1954C535.206 43.7907 533.895 41.3875 531.273 39.9856C528.718 38.5169 524.92 37.7826 519.877 37.7826Z" fill="white"/>
<path d="M595.84 94.2139C615.549 94.2139 631.526 78.3491 631.526 58.7788C631.526 39.2086 615.549 23.3438 595.84 23.3438C576.132 23.3438 560.155 39.2086 560.155 58.7788C560.155 78.3491 576.132 94.2139 595.84 94.2139Z" fill="white"/>
<mask id="mask0_60_183" style="mask-type:luminance" maskUnits="userSpaceOnUse" x="562" y="20" width="73" height="72">
<path d="M624.672 20.3401L562.748 29.7415L572.311 91.8523L634.236 82.4509L624.672 20.3401Z" fill="white"/>
</mask>
<g mask="url(#mask0_60_183)">
<path d="M580.469 84.9044L573.856 80.0384L589.795 58.3252L596.408 63.1914L580.469 84.9044ZM604.298 52.4378L599.062 59.5741L592.446 54.7138L597.685 47.5772C597.86 47.3399 597.986 47.0704 598.056 46.7843C598.126 46.498 598.138 46.2007 598.094 45.9093C598.049 45.6178 597.947 45.3379 597.794 45.0856C597.64 44.8333 597.44 44.6134 597.202 44.4387L582.064 33.3082C585.69 31.6649 589.69 31.0181 593.652 31.4342C597.615 31.8503 601.398 33.3144 604.612 35.6759L618.765 46.1558L612.02 55.3341L607.434 51.9616C607.196 51.7867 606.927 51.6602 606.641 51.5895C606.354 51.5187 606.057 51.5051 605.765 51.5493C605.475 51.5935 605.195 51.6947 604.943 51.8472C604.691 51.9996 604.472 52.2004 604.298 52.4378ZM619.483 60.8176L615.645 57.9954L622.36 48.8245L626.197 51.6467L619.483 60.8176Z" fill="#40B6BE"/>
</g>
</svg>
