<svg width="88" height="80" viewBox="0 0 88 80" fill="none" xmlns="http://www.w3.org/2000/svg">
<path d="M9.7451 79.8439L0.76974 70.8837L30.2825 41.4351L39.2579 50.3953L9.7451 79.8439ZM53.8667 35.8096L44.1709 45.4886L35.1912 36.5371L44.8913 26.8581C45.2142 26.5363 45.4703 26.1542 45.645 25.7336C45.8197 25.313 45.9097 24.8622 45.9097 24.4069C45.9097 23.9516 45.8197 23.5008 45.645 23.0802C45.4703 22.6596 45.2142 22.2775 44.8913 21.9558L24.3452 1.45868C30.2814 -0.209508 36.5556 -0.269979 42.5229 1.28349C48.4902 2.83695 53.9352 5.94829 58.298 10.2976L77.4899 29.5734L65.0034 42.0198L58.7797 35.8096C58.4572 35.4875 58.0743 35.2319 57.6528 35.0576C57.2313 34.8832 56.7795 34.7935 56.3232 34.7935C55.8669 34.7935 55.4151 34.8832 54.9936 35.0576C54.5721 35.2319 54.1892 35.4875 53.8667 35.8096ZM75.1333 52.1189L69.9251 46.9221L82.3639 34.4801L87.572 39.6769L75.1333 52.1189Z" fill="black"/>
</svg>
