<svg width="81" height="75" viewBox="0 0 81 75" fill="none" xmlns="http://www.w3.org/2000/svg">
<path d="M8.62301 74.4264L0.380334 66.1063L27.4839 38.7612L35.7266 47.0813L8.62301 74.4264ZM49.1428 33.5375L40.2385 42.5252L31.9919 34.2131L40.9002 25.2254C41.1966 24.9266 41.4318 24.5718 41.5923 24.1812C41.7528 23.7907 41.8354 23.3721 41.8354 22.9493C41.8354 22.5265 41.7528 22.1079 41.5923 21.7173C41.4318 21.3268 41.1966 20.972 40.9002 20.6732L22.0313 1.6402C27.4828 0.0911665 33.2449 0.0350156 38.7251 1.47752C44.2053 2.92002 49.2058 5.80913 53.2124 9.84776L70.8377 27.7467L59.3705 39.3041L53.6548 33.5375C53.3587 33.2384 53.007 33.0011 52.6199 32.8392C52.2328 32.6773 51.8179 32.5939 51.3988 32.5939C50.9798 32.5939 50.5649 32.6773 50.1778 32.8392C49.7907 33.0011 49.439 33.2384 49.1428 33.5375ZM68.6734 48.6818L63.8904 43.8562L75.3137 32.3029L80.0967 37.1285L68.6734 48.6818Z" fill="white"/>
</svg>
