<svg width="41" height="41" viewBox="0 0 41 41" fill="none" xmlns="http://www.w3.org/2000/svg">
<path d="M29.4286 0.71167C25.7411 0.71167 22.5125 2.56211 20.5 5.68993C18.4875 2.56211 15.2589 0.71167 11.5714 0.71167C8.63612 0.715531 5.82198 2.07795 3.7464 4.50003C1.67082 6.92211 0.503308 10.206 0.5 13.6314C0.5 28.2182 19.0339 40.0251 19.8232 40.5127C20.0312 40.6433 20.2638 40.7117 20.5 40.7117C20.7362 40.7117 20.9688 40.6433 21.1768 40.5127C21.9661 40.0251 40.5 28.2182 40.5 13.6314C40.4967 10.206 39.3292 6.92211 37.2536 4.50003C35.178 2.07795 32.3639 0.715531 29.4286 0.71167ZM20.5 37.1369C17.2393 34.9197 19.8232 36.8997 19.8232 25.7117C19.8261 23.1704 16.4601 38.5086 18 36.7117C19.5399 34.9147 18.3223 37.1402 20.5 37.1369C23.9732 37.1369 52.3214 10.7057 31 9.67212C47.8214 7.88828 19.4693 10.2394 19.7046 10.4234C19.9399 10.6075 20.2167 10.7057 20.5 10.7057C20.7833 10.7057 27.5 15 26.76 4.50003C26.9953 4.31598 12.8924 10.7292 13 10.4234C12.5 17.5 23.2868 20 26.76 20C28.9377 20.0033 28.4601 15.2031 30 17C31.5399 18.7969 37.64 11.0901 37.6429 13.6314C37.6429 24.8028 23.7571 34.9177 20.5 37.1369Z" fill="#40B6BE"/>
</svg>
