<svg width="40" height="40" viewBox="0 0 40 40" fill="none" xmlns="http://www.w3.org/2000/svg">
<path d="M28.9286 0C25.2411 0 22.0125 1.85044 20 4.97826C17.9875 1.85044 14.7589 0 11.0714 0C8.13612 0.00386078 5.32198 1.36628 3.2464 3.78836C1.17082 6.21044 0.00330846 9.49438 0 12.9197C0 27.5065 18.5339 39.3134 19.3232 39.8011C19.5312 39.9316 19.7638 40 20 40C20.2362 40 20.4688 39.9316 20.6768 39.8011C21.4661 39.3134 40 27.5065 40 12.9197C39.9967 9.49438 38.8292 6.21044 36.7536 3.78836C34.678 1.36628 31.8639 0.00386078 28.9286 0ZM20 36.4253C16.7393 34.2081 2.85714 24.1078 2.85714 12.9197C2.85998 10.3785 3.72632 7.94226 5.26618 6.14533C6.80605 4.3484 8.89374 3.33743 11.0714 3.33412C14.5446 3.33412 17.4607 5.49296 18.6786 8.96045C18.7862 9.2662 18.9693 9.52772 19.2046 9.71177C19.4399 9.89581 19.7167 9.99408 20 9.99408C20.2833 9.99408 20.5601 9.89581 20.7954 9.71177C21.0307 9.52772 21.2138 9.2662 21.3214 8.96045C22.5393 5.48671 25.4554 3.33412 28.9286 3.33412C31.1063 3.33743 33.194 4.3484 34.7338 6.14533C36.2737 7.94226 37.14 10.3785 37.1429 12.9197C37.1429 24.0911 23.2571 34.206 20 36.4253Z" fill="#40B6BE"/>
</svg>
