<svg width="806" height="147" viewBox="0 0 806 147" fill="none" xmlns="http://www.w3.org/2000/svg">
<path d="M50.688 122.792C36.2667 122.792 25.2587 118.781 17.664 110.76C10.1547 102.739 6.4 91.3467 6.4 76.584C6.4 69.2453 7.552 62.7173 9.856 57C12.16 51.1973 15.3173 46.3333 19.328 42.408C23.3387 38.3973 28.1173 35.368 33.664 33.32C39.2107 31.272 45.2267 30.248 51.712 30.248C55.4667 30.248 58.88 30.5467 61.952 31.144C65.024 31.656 67.712 32.296 70.016 33.064C72.32 33.7467 74.24 34.472 75.776 35.24C77.312 36.008 78.4213 36.6053 79.104 37.032L73.344 53.16C70.6133 51.7093 67.4133 50.472 63.744 49.448C60.16 48.424 56.064 47.912 51.456 47.912C48.384 47.912 45.3547 48.424 42.368 49.448C39.4667 50.472 36.864 52.136 34.56 54.44C32.3413 56.6587 30.5493 59.56 29.184 63.144C27.8187 66.728 27.136 71.08 27.136 76.2C27.136 80.296 27.5627 84.136 28.416 87.72C29.3547 91.2187 30.8053 94.248 32.768 96.808C34.816 99.368 37.4613 101.416 40.704 102.952C43.9467 104.403 47.872 105.128 52.48 105.128C55.3813 105.128 57.984 104.957 60.288 104.616C62.592 104.275 64.64 103.891 66.432 103.464C68.224 102.952 69.8027 102.397 71.168 101.8C72.5333 101.203 73.7707 100.648 74.88 100.136L80.384 116.136C77.568 117.843 73.6 119.379 68.48 120.744C63.36 122.109 57.4293 122.792 50.688 122.792ZM153.436 87.208C153.436 92.4987 152.668 97.3627 151.132 101.8C149.596 106.152 147.377 109.907 144.476 113.064C141.575 116.136 138.076 118.525 133.98 120.232C129.969 121.939 125.447 122.792 120.412 122.792C115.463 122.792 110.94 121.939 106.844 120.232C102.833 118.525 99.3773 116.136 96.476 113.064C93.5747 109.907 91.3133 106.152 89.692 101.8C88.0707 97.3627 87.26 92.4987 87.26 87.208C87.26 81.9173 88.0707 77.096 89.692 72.744C91.3987 68.392 93.7027 64.68 96.604 61.608C99.5907 58.536 103.089 56.1467 107.1 54.44C111.196 52.7333 115.633 51.88 120.412 51.88C125.276 51.88 129.713 52.7333 133.724 54.44C137.82 56.1467 141.319 58.536 144.22 61.608C147.121 64.68 149.383 68.392 151.004 72.744C152.625 77.096 153.436 81.9173 153.436 87.208ZM133.98 87.208C133.98 81.32 132.785 76.712 130.396 73.384C128.092 69.9707 124.764 68.264 120.412 68.264C116.06 68.264 112.689 69.9707 110.3 73.384C107.911 76.712 106.716 81.32 106.716 87.208C106.716 93.096 107.911 97.7893 110.3 101.288C112.689 104.701 116.06 106.408 120.412 106.408C124.764 106.408 128.092 104.701 130.396 101.288C132.785 97.7893 133.98 93.096 133.98 87.208ZM168.21 55.976C171.453 55.0373 175.634 54.184 180.754 53.416C185.874 52.5627 191.25 52.136 196.882 52.136C202.599 52.136 207.335 52.904 211.09 54.44C214.93 55.8907 217.959 57.9813 220.178 60.712C222.397 63.4427 223.975 66.6853 224.914 70.44C225.853 74.1947 226.322 78.376 226.322 82.984V121H207.25V85.288C207.25 79.144 206.439 74.792 204.818 72.232C203.197 69.672 200.167 68.392 195.73 68.392C194.365 68.392 192.914 68.4773 191.378 68.648C189.842 68.7333 188.477 68.8613 187.282 69.032V121H168.21V55.976ZM242.945 36.904L262.017 33.832V53.672H284.929V69.544H262.017V93.224C262.017 97.2347 262.7 100.435 264.065 102.824C265.516 105.213 268.374 106.408 272.641 106.408C274.689 106.408 276.78 106.237 278.913 105.896C281.132 105.469 283.137 104.915 284.929 104.232L287.617 119.08C285.313 120.019 282.753 120.829 279.937 121.512C277.121 122.195 273.665 122.536 269.569 122.536C264.364 122.536 260.054 121.853 256.641 120.488C253.228 119.037 250.497 117.075 248.449 114.6C246.401 112.04 244.95 108.968 244.097 105.384C243.329 101.8 242.945 97.832 242.945 93.48V36.904ZM341.036 70.568C339.329 70.1413 337.324 69.7147 335.02 69.288C332.716 68.776 330.241 68.52 327.596 68.52C326.401 68.52 324.951 68.648 323.244 68.904C321.623 69.0747 320.385 69.288 319.532 69.544V121H300.46V57.256C303.873 56.0613 307.884 54.952 312.492 53.928C317.185 52.8187 322.391 52.264 328.108 52.264C329.132 52.264 330.369 52.3493 331.82 52.52C333.271 52.6053 334.721 52.776 336.172 53.032C337.623 53.2027 339.073 53.4587 340.524 53.8C341.975 54.056 343.212 54.3973 344.236 54.824L341.036 70.568ZM378.938 107.688C380.815 107.688 382.607 107.645 384.314 107.56C386.021 107.475 387.386 107.347 388.41 107.176V92.712C387.642 92.5413 386.49 92.3707 384.954 92.2C383.418 92.0293 382.01 91.944 380.73 91.944C378.938 91.944 377.231 92.072 375.61 92.328C374.074 92.4987 372.709 92.8827 371.514 93.48C370.319 94.0773 369.381 94.888 368.698 95.912C368.015 96.936 367.674 98.216 367.674 99.752C367.674 102.739 368.655 104.829 370.618 106.024C372.666 107.133 375.439 107.688 378.938 107.688ZM377.402 51.88C383.034 51.88 387.727 52.52 391.482 53.8C395.237 55.08 398.223 56.9147 400.442 59.304C402.746 61.6933 404.367 64.5947 405.306 68.008C406.245 71.4213 406.714 75.2187 406.714 79.4V119.08C403.983 119.677 400.186 120.36 395.322 121.128C390.458 121.981 384.57 122.408 377.658 122.408C373.306 122.408 369.338 122.024 365.754 121.256C362.255 120.488 359.226 119.251 356.666 117.544C354.106 115.752 352.143 113.448 350.778 110.632C349.413 107.816 348.73 104.36 348.73 100.264C348.73 96.3387 349.498 93.0107 351.034 90.28C352.655 87.5493 354.789 85.3733 357.434 83.752C360.079 82.1307 363.109 80.9787 366.522 80.296C369.935 79.528 373.477 79.144 377.146 79.144C379.621 79.144 381.797 79.272 383.674 79.528C385.637 79.6987 387.215 79.9547 388.41 80.296V78.504C388.41 75.2613 387.429 72.6587 385.466 70.696C383.503 68.7333 380.09 67.752 375.226 67.752C371.983 67.752 368.783 68.008 365.626 68.52C362.469 68.9467 359.738 69.5867 357.434 70.44L355.002 55.08C356.111 54.7387 357.477 54.3973 359.098 54.056C360.805 53.6293 362.639 53.288 364.602 53.032C366.565 52.6907 368.613 52.4347 370.746 52.264C372.965 52.008 375.183 51.88 377.402 51.88ZM423.32 36.904L442.392 33.832V53.672H465.304V69.544H442.392V93.224C442.392 97.2347 443.075 100.435 444.44 102.824C445.891 105.213 448.749 106.408 453.016 106.408C455.064 106.408 457.155 106.237 459.288 105.896C461.507 105.469 463.512 104.915 465.304 104.232L467.992 119.08C465.688 120.019 463.128 120.829 460.312 121.512C457.496 122.195 454.04 122.536 449.944 122.536C444.739 122.536 440.429 121.853 437.016 120.488C433.603 119.037 430.872 117.075 428.824 114.6C426.776 112.04 425.325 108.968 424.472 105.384C423.704 101.8 423.32 97.832 423.32 93.48V36.904ZM504.063 107.688C505.94 107.688 507.732 107.645 509.439 107.56C511.146 107.475 512.511 107.347 513.535 107.176V92.712C512.767 92.5413 511.615 92.3707 510.079 92.2C508.543 92.0293 507.135 91.944 505.855 91.944C504.063 91.944 502.356 92.072 500.735 92.328C499.199 92.4987 497.834 92.8827 496.639 93.48C495.444 94.0773 494.506 94.888 493.823 95.912C493.14 96.936 492.799 98.216 492.799 99.752C492.799 102.739 493.78 104.829 495.743 106.024C497.791 107.133 500.564 107.688 504.063 107.688ZM502.527 51.88C508.159 51.88 512.852 52.52 516.607 53.8C520.362 55.08 523.348 56.9147 525.567 59.304C527.871 61.6933 529.492 64.5947 530.431 68.008C531.37 71.4213 531.839 75.2187 531.839 79.4V119.08C529.108 119.677 525.311 120.36 520.447 121.128C515.583 121.981 509.695 122.408 502.783 122.408C498.431 122.408 494.463 122.024 490.879 121.256C487.38 120.488 484.351 119.251 481.791 117.544C479.231 115.752 477.268 113.448 475.903 110.632C474.538 107.816 473.855 104.36 473.855 100.264C473.855 96.3387 474.623 93.0107 476.159 90.28C477.78 87.5493 479.914 85.3733 482.559 83.752C485.204 82.1307 488.234 80.9787 491.647 80.296C495.06 79.528 498.602 79.144 502.271 79.144C504.746 79.144 506.922 79.272 508.799 79.528C510.762 79.6987 512.34 79.9547 513.535 80.296V78.504C513.535 75.2613 512.554 72.6587 510.591 70.696C508.628 68.7333 505.215 67.752 500.351 67.752C497.108 67.752 493.908 68.008 490.751 68.52C487.594 68.9467 484.863 69.5867 482.559 70.44L480.127 55.08C481.236 54.7387 482.602 54.3973 484.223 54.056C485.93 53.6293 487.764 53.288 489.727 53.032C491.69 52.6907 493.738 52.4347 495.871 52.264C498.09 52.008 500.308 51.88 502.527 51.88Z" fill="#414141"/>
<path d="M576.989 31.272C590.216 31.272 600.37 33.6187 607.453 38.312C614.536 42.92 618.077 50.5147 618.077 61.096C618.077 71.7627 614.493 79.4853 607.325 84.264C600.157 88.9573 589.917 91.304 576.605 91.304H570.333V121H550.365V33.576C554.717 32.7227 559.325 32.1253 564.189 31.784C569.053 31.4427 573.32 31.272 576.989 31.272ZM578.269 48.296C576.818 48.296 575.368 48.3387 573.917 48.424C572.552 48.5093 571.357 48.5947 570.333 48.68V74.28H576.605C583.517 74.28 588.722 73.3413 592.221 71.464C595.72 69.5867 597.469 66.088 597.469 60.968C597.469 58.4933 597 56.4453 596.061 54.824C595.208 53.2027 593.928 51.9227 592.221 50.984C590.6 49.96 588.594 49.2773 586.205 48.936C583.816 48.5093 581.17 48.296 578.269 48.296ZM658.724 31.272C672.036 31.272 682.233 33.6613 689.316 38.44C696.399 43.1333 699.94 50.472 699.94 60.456C699.94 66.6853 698.489 71.7627 695.588 75.688C692.772 79.528 688.676 82.5573 683.3 84.776C685.092 86.9947 686.969 89.5547 688.932 92.456C690.895 95.272 692.815 98.2587 694.692 101.416C696.655 104.488 698.532 107.731 700.324 111.144C702.116 114.472 703.78 117.757 705.316 121H682.916C681.295 118.099 679.631 115.155 677.924 112.168C676.303 109.181 674.596 106.28 672.804 103.464C671.097 100.648 669.391 98.0027 667.684 95.528C665.977 92.968 664.271 90.664 662.564 88.616H652.708V121H632.74V33.576C637.092 32.7227 641.572 32.1253 646.18 31.784C650.873 31.4427 655.055 31.272 658.724 31.272ZM659.876 48.296C658.425 48.296 657.103 48.3387 655.908 48.424C654.799 48.5093 653.732 48.5947 652.708 48.68V72.744H658.34C665.849 72.744 671.225 71.8053 674.468 69.928C677.711 68.0507 679.332 64.8507 679.332 60.328C679.332 55.976 677.668 52.904 674.34 51.112C671.097 49.2347 666.276 48.296 659.876 48.296Z" fill="#40B6BE"/>
<circle cx="756.295" cy="75.1347" r="45.2953" fill="#40B6BE"/>
<g clip-path="url(#clip0_60_176)">
<path d="M736.785 108.53L728.391 102.31L748.622 74.5548L757.016 80.7751L736.785 108.53ZM767.03 67.0292L760.384 76.1512L751.987 69.9385L758.637 60.816C758.858 60.5127 759.018 60.1683 759.107 59.8025C759.196 59.4366 759.212 59.0566 759.155 58.684C759.098 58.3114 758.969 57.9536 758.775 57.6311C758.58 57.3086 758.325 57.0276 758.023 56.8043L738.809 42.5766C743.411 40.476 748.488 39.6492 753.518 40.1811C758.548 40.713 763.349 42.5845 767.429 45.6031L785.393 58.9992L776.832 70.7314L771.011 66.4205C770.709 66.1969 770.367 66.0352 770.004 65.9448C769.64 65.8543 769.263 65.8369 768.893 65.8934C768.524 65.9499 768.169 66.0793 767.849 66.2742C767.529 66.4691 767.251 66.7257 767.03 67.0292ZM786.304 77.7407L781.433 74.1333L789.956 62.4105L794.827 66.018L786.304 77.7407Z" fill="white"/>
</g>
<defs>
<clipPath id="clip0_60_176">
<rect width="79.5138" height="80.3164" fill="white" transform="translate(714.291 38.0174) rotate(-8.69277)"/>
</clipPath>
</defs>
</svg>
