<svg width="26" height="25" viewBox="0 0 26 25" fill="none" xmlns="http://www.w3.org/2000/svg">
<path d="M24.6254 11.5617L19.7035 15.8087L21.2031 22.1601C21.2858 22.5049 21.2645 22.8665 21.1418 23.1992C21.0192 23.5319 20.8007 23.8207 20.5139 24.0293C20.2272 24.2379 19.885 24.3568 19.5308 24.371C19.1765 24.3852 18.8259 24.2941 18.5234 24.1092L12.9999 20.7098L7.47321 24.1092C7.17071 24.293 6.82058 24.3833 6.4669 24.3685C6.11322 24.3538 5.7718 24.2347 5.48565 24.0263C5.1995 23.818 4.98141 23.5296 4.85883 23.1975C4.73625 22.8654 4.71467 22.5045 4.79681 22.1601L6.30181 15.8087L1.37993 11.5617C1.11229 11.3304 0.918725 11.0253 0.823413 10.6847C0.728101 10.344 0.735265 9.9828 0.844011 9.64617C0.952757 9.30955 1.15826 9.01243 1.43487 8.79191C1.71147 8.57138 2.04692 8.43724 2.39931 8.40622L8.85243 7.8856L11.3418 1.86122C11.4765 1.5329 11.7059 1.25206 12.0006 1.05441C12.2954 0.856755 12.6423 0.751221 12.9972 0.751221C13.3521 0.751221 13.699 0.856755 13.9937 1.05441C14.2885 1.25206 14.5178 1.5329 14.6526 1.86122L17.1409 7.8856L23.594 8.40622C23.9471 8.43609 24.2835 8.56948 24.5611 8.7897C24.8387 9.00992 25.0452 9.30716 25.1546 9.64419C25.264 9.98122 25.2716 10.343 25.1762 10.6843C25.0809 11.0256 24.887 11.3312 24.6188 11.5628L24.6254 11.5617Z" fill="#40B6BE"/>
</svg>
