<svg width="37" height="36" viewBox="0 0 37 36" fill="none" xmlns="http://www.w3.org/2000/svg">
<path d="M36.1053 13.5768C35.9451 13.0844 35.6428 12.6504 35.2364 12.3294C34.83 12.0085 34.3377 11.8151 33.8215 11.7735L24.3723 11.0111L20.7239 2.18811C20.5266 1.70735 20.1908 1.29611 19.7592 1.0067C19.3276 0.717277 18.8196 0.562744 18.3 0.562744C17.7803 0.562744 17.2723 0.717277 16.8407 1.0067C16.4091 1.29611 16.0733 1.70735 15.876 2.18811L12.2308 11.0095L2.77681 11.7735C2.25978 11.8172 1.76716 12.0125 1.36066 12.335C0.954163 12.6574 0.651861 13.0927 0.491633 13.5862C0.331405 14.0797 0.320377 14.6095 0.45993 15.1093C0.599484 15.609 0.883412 16.0565 1.27614 16.3956L8.48317 22.6144L6.28743 31.9131C6.16463 32.4183 6.1947 32.9486 6.37382 33.4366C6.55294 33.9247 6.87303 34.3485 7.29347 34.6543C7.7139 34.9601 8.21572 35.1341 8.73522 35.1542C9.25472 35.1742 9.76847 35.0395 10.2113 34.7671L18.2991 29.7894L26.3918 34.7671C26.8348 35.0363 27.3475 35.1684 27.8654 35.1468C28.3833 35.1253 28.8832 34.9509 29.3022 34.6458C29.7212 34.3406 30.0406 33.9183 30.2201 33.4321C30.3995 32.9458 30.4311 32.4173 30.3109 31.9131L28.1071 22.6128L35.3142 16.394C35.7101 16.0554 35.9966 15.607 36.1374 15.1055C36.2783 14.604 36.2671 14.072 36.1053 13.5768ZM33.6485 14.4529L25.8489 21.1794C25.671 21.3327 25.5387 21.532 25.4664 21.7554C25.3941 21.9788 25.3846 22.2178 25.4389 22.4463L27.822 32.5041C27.8282 32.5179 27.8288 32.5336 27.8238 32.5479C27.8187 32.5623 27.8083 32.5741 27.7948 32.581C27.766 32.6034 27.758 32.5986 27.734 32.581L18.9702 27.1917C18.7684 27.0676 18.5361 27.0019 18.2991 27.0019C18.0622 27.0019 17.8299 27.0676 17.6281 27.1917L8.86434 32.5842C8.84032 32.5986 8.83392 32.6034 8.80349 32.5842C8.78997 32.5773 8.77961 32.5655 8.77454 32.5512C8.76948 32.5368 8.77009 32.5211 8.77626 32.5073L11.1594 22.4495C11.2137 22.221 11.2042 21.982 11.1319 21.7586C11.0596 21.5352 10.9273 21.336 10.7494 21.1826L2.94977 14.4561C2.93056 14.4401 2.91294 14.4256 2.92895 14.376C2.94497 14.3263 2.95778 14.3328 2.98181 14.3296L13.219 13.5031C13.4538 13.483 13.6785 13.3985 13.8684 13.2589C14.0583 13.1193 14.206 12.9301 14.2952 12.712L18.2383 3.16506C18.2511 3.13783 18.2559 3.12502 18.2943 3.12502C18.3328 3.12502 18.3376 3.13783 18.3504 3.16506L22.3031 12.712C22.3932 12.9302 22.5418 13.1192 22.7326 13.2582C22.9233 13.3973 23.1488 13.4809 23.3841 13.4999L33.6213 14.3263C33.6453 14.3263 33.6597 14.3263 33.6741 14.3728C33.6886 14.4192 33.6741 14.4369 33.6485 14.4529Z" fill="#40B6BE"/>
</svg>
