<svg width="39" height="37" viewBox="0 0 39 37" fill="none" xmlns="http://www.w3.org/2000/svg">
<path d="M38.7789 34.7486C35.926 29.8827 31.5296 26.3935 26.399 24.7395C28.9368 23.249 30.9086 20.9777 32.0114 18.2746C33.1143 15.5715 33.2873 12.5859 32.5038 9.7764C31.7203 6.96689 30.0237 4.48879 27.6746 2.72265C25.3254 0.956514 22.4535 0 19.5 0C16.5465 0 13.6746 0.956514 11.3254 2.72265C8.97626 4.48879 7.27966 6.96689 6.49619 9.7764C5.71272 12.5859 5.88569 15.5715 6.98855 18.2746C8.09141 20.9777 10.0632 23.249 12.601 24.7395C7.47036 26.3917 3.07398 29.8808 0.221105 34.7486C0.116485 34.9169 0.0470913 35.1042 0.0170183 35.2994C-0.0130547 35.4946 -0.00319805 35.6937 0.0460068 35.8851C0.0952117 36.0764 0.182768 36.2562 0.30351 36.4136C0.424252 36.571 0.575733 36.703 0.749017 36.8018C0.922301 36.9005 1.11388 36.964 1.31244 36.9886C1.51101 37.0131 1.71254 36.9981 1.90514 36.9445C2.09775 36.891 2.27753 36.7999 2.43388 36.6767C2.59023 36.5534 2.71998 36.4006 2.81548 36.2271C6.34457 30.2098 12.5823 26.6171 19.5 26.6171C26.4177 26.6171 32.6554 30.2098 36.1845 36.2271C36.28 36.4006 36.4098 36.5534 36.5661 36.6767C36.7225 36.7999 36.9022 36.891 37.0949 36.9445C37.2875 36.9981 37.489 37.0131 37.6876 36.9886C37.8861 36.964 38.0777 36.9005 38.251 36.8018C38.4243 36.703 38.5757 36.571 38.6965 36.4136C38.8172 36.2562 38.9048 36.0764 38.954 35.8851C39.0032 35.6937 39.0131 35.4946 38.983 35.2994C38.9529 35.1042 38.8835 34.9169 38.7789 34.7486ZM9.01012 13.3111C9.01012 11.2642 9.62534 9.26331 10.778 7.5614C11.9306 5.85949 13.5689 4.53301 15.4857 3.74971C17.4025 2.96641 19.5116 2.76146 21.5465 3.16078C23.5813 3.56011 25.4504 4.54577 26.9175 5.99312C28.3845 7.44048 29.3836 9.28452 29.7883 11.2921C30.1931 13.2996 29.9853 15.3805 29.1914 17.2715C28.3974 19.1626 27.0529 20.7789 25.3279 21.9161C23.6028 23.0533 21.5747 23.6602 19.5 23.6602C16.7188 23.6573 14.0524 22.566 12.0858 20.6258C10.1192 18.6856 9.0131 16.0549 9.01012 13.3111Z" fill="#40B6BE"/>
</svg>
