<svg width="80" height="77" viewBox="0 0 80 77" fill="none" xmlns="http://www.w3.org/2000/svg">
<path d="M79.399 72.1563C73.5688 62.0768 64.5842 54.8493 54.0989 51.4232C59.2854 48.3356 63.315 43.6309 65.5688 38.0316C67.8227 32.4323 68.1762 26.2479 66.575 20.4282C64.9739 14.6085 61.5067 9.47531 56.7058 5.81689C51.9049 2.15847 46.0359 0.177124 40 0.177124C33.964 0.177124 28.095 2.15847 23.2941 5.81689C18.4933 9.47531 15.026 14.6085 13.4249 20.4282C11.8238 26.2479 12.1773 32.4323 14.4311 38.0316C16.6849 43.6309 20.7145 48.3356 25.901 51.4232C15.4157 54.8455 6.43114 62.073 0.600906 72.1563C0.387101 72.5049 0.245285 72.8928 0.183827 73.2971C0.122369 73.7015 0.142512 74.114 0.243069 74.5104C0.343626 74.9068 0.52256 75.2791 0.769312 75.6052C1.01606 75.9313 1.32564 76.2047 1.67977 76.4093C2.0339 76.6138 2.42541 76.7454 2.8312 76.7962C3.237 76.847 3.64885 76.816 4.04247 76.705C4.43609 76.594 4.8035 76.4054 5.12302 76.1501C5.44254 75.8949 5.7077 75.5782 5.90286 75.2188C13.115 62.7544 25.8627 55.3125 40 55.3125C54.1372 55.3125 66.8849 62.7544 74.0971 75.2188C74.2922 75.5782 74.5574 75.8949 74.8769 76.1501C75.1964 76.4054 75.5638 76.594 75.9575 76.705C76.3511 76.816 76.7629 76.847 77.1687 76.7962C77.5745 76.7454 77.966 76.6138 78.3202 76.4093C78.6743 76.2047 78.9839 75.9313 79.2306 75.6052C79.4774 75.2791 79.6563 74.9068 79.7569 74.5104C79.8574 74.114 79.8776 73.7015 79.8161 73.2971C79.7546 72.8928 79.6128 72.5049 79.399 72.1563ZM18.5625 27.75C18.5625 23.5101 19.8198 19.3654 22.1753 15.84C24.5309 12.3146 27.879 9.56693 31.7962 7.94437C35.7134 6.32182 40.0238 5.89728 44.1822 6.72445C48.3407 7.55162 52.1605 9.59335 55.1586 12.5914C58.1567 15.5895 60.1984 19.4093 61.0256 23.5678C61.8527 27.7263 61.4282 32.0366 59.8056 35.9538C58.1831 39.871 55.4354 43.2191 51.91 45.5747C48.3846 47.9303 44.2399 49.1875 40 49.1875C34.3163 49.1815 28.8671 46.9209 24.8481 42.9019C20.8291 38.8829 18.5685 33.4338 18.5625 27.75Z" fill="black"/>
</svg>
