<svg width="80" height="77" viewBox="0 0 80 77" fill="none" xmlns="http://www.w3.org/2000/svg">
<path d="M79.3991 72.1562C73.5688 62.0767 64.5842 54.8492 54.099 51.423C59.2854 48.3355 63.315 43.6308 65.5689 38.0315C67.8227 32.4321 68.1762 26.2478 66.5751 20.4281C64.9739 14.6084 61.5067 9.47519 56.7058 5.81677C51.905 2.15835 46.0359 0.177002 40 0.177002C33.9641 0.177002 28.095 2.15835 23.2942 5.81677C18.4933 9.47519 15.0261 14.6084 13.4249 20.4281C11.8238 26.2478 12.1773 32.4321 14.4311 38.0315C16.685 43.6308 20.7145 48.3355 25.901 51.423C15.4158 54.8454 6.43117 62.0729 0.600936 72.1562C0.387131 72.5048 0.245316 72.8927 0.183858 73.297C0.122399 73.7013 0.142543 74.1139 0.2431 74.5103C0.343656 74.9067 0.52259 75.2789 0.769343 75.6051C1.0161 75.9312 1.32567 76.2046 1.6798 76.4091C2.03393 76.6137 2.42544 76.7452 2.83123 76.796C3.23703 76.8468 3.64888 76.8158 4.0425 76.7049C4.43612 76.5939 4.80353 76.4052 5.12305 76.15C5.44257 75.8947 5.70773 75.5781 5.90289 75.2187C13.1151 62.7543 25.8627 55.3124 40 55.3124C54.1373 55.3124 66.8849 62.7543 74.0971 75.2187C74.2923 75.5781 74.5574 75.8947 74.8769 76.15C75.1965 76.4052 75.5639 76.5939 75.9575 76.7049C76.3511 76.8158 76.763 76.8468 77.1688 76.796C77.5746 76.7452 77.9661 76.6137 78.3202 76.4091C78.6743 76.2046 78.9839 75.9312 79.2307 75.6051C79.4774 75.2789 79.6563 74.9067 79.7569 74.5103C79.8575 74.1139 79.8776 73.7013 79.8161 73.297C79.7547 72.8927 79.6129 72.5048 79.3991 72.1562ZM18.5625 27.7499C18.5625 23.51 19.8198 19.3653 22.1754 15.8399C24.531 12.3145 27.879 9.5668 31.7962 7.94425C35.7134 6.3217 40.0238 5.89716 44.1823 6.72433C48.3407 7.5515 52.1605 9.59323 55.1586 12.5913C58.1567 15.5894 60.1984 19.4092 61.0256 23.5677C61.8528 27.7261 61.4282 32.0365 59.8057 35.9537C58.1831 39.8709 55.4354 43.219 51.91 45.5746C48.3847 47.9301 44.2399 49.1874 40 49.1874C34.3163 49.1813 28.8671 46.9208 24.8481 42.9018C20.8291 38.8828 18.5686 33.4336 18.5625 27.7499Z" fill="white"/>
</svg>
