<svg width="75" height="75" viewBox="0 0 75 75" fill="none" xmlns="http://www.w3.org/2000/svg">
<path d="M35.8403 74.2139C55.5488 74.2139 71.5258 58.3491 71.5258 38.7788C71.5258 19.2086 55.5488 3.34375 35.8403 3.34375C16.1317 3.34375 0.154785 19.2086 0.154785 38.7788C0.154785 58.3491 16.1317 74.2139 35.8403 74.2139Z" fill="white"/>
<mask id="mask0_321_20" style="mask-type:luminance" maskUnits="userSpaceOnUse" x="2" y="0" width="73" height="72">
<path d="M64.6725 0.340145L2.7478 9.74152L12.3112 71.8523L74.2358 62.4509L64.6725 0.340145Z" fill="white"/>
</mask>
<g mask="url(#mask0_321_20)">
<path d="M20.4696 64.9044L13.8564 60.0384L29.7953 38.3252L36.4084 43.1914L20.4696 64.9044ZM44.2979 32.4378L39.0618 39.5741L32.4464 34.7138L37.6855 27.5772C37.8596 27.3399 37.9857 27.0704 38.0558 26.7843C38.1259 26.498 38.1385 26.2007 38.0936 25.9093C38.0487 25.6178 37.9471 25.3379 37.7942 25.0856C37.6406 24.8333 37.4397 24.6134 37.2018 24.4387L22.0642 13.3082C25.6898 11.6649 29.6897 11.0181 33.6525 11.4342C37.6154 11.8503 41.3978 13.3144 44.6122 15.6759L58.765 26.1558L52.0202 35.3341L47.4342 31.9616C47.1963 31.7867 46.9269 31.6602 46.6409 31.5895C46.3541 31.5187 46.0571 31.5051 45.7656 31.5493C45.4749 31.5935 45.1952 31.6947 44.9431 31.8472C44.691 31.9996 44.472 32.2004 44.2979 32.4378ZM59.4827 40.8176L55.6451 37.9954L62.3599 28.8245L66.1975 31.6467L59.4827 40.8176Z" fill="#40B6BE"/>
</g>
</svg>
